<svg xmlns="http://www.w3.org/2000/svg" xmlns:xlink="http://www.w3.org/1999/xlink" viewBox="0 0 104.16 134.6"><defs><style>.cls-1,.cls-4,.cls-6{fill:none;}.cls-2{clip-path:url(#clip-path);}.cls-3{fill:#9f1814;}.cls-4,.cls-6{stroke:#9f1814;stroke-width:2.51px;}.cls-4{stroke-linejoin:round;}.cls-5{fill:#fff;}</style><clipPath id="clip-path" transform="translate(0 -0.5)"><rect class="cls-1" width="104.16" height="135.1"/></clipPath></defs><g id="Ebene_2" data-name="Ebene 2"><g id="Ebene_1-2" data-name="Ebene 1"><g class="cls-2"><path class="cls-3" d="M89.64,33.64h0l0-.07,0-.07h0c-.75-2.26-1.93-4.56-3.43-5.19-1.07-.46-2,0-2.08.54-.11,1.1.79,2.43-.23,3.35a10.16,10.16,0,0,1-3.77,2.12,29.79,29.79,0,0,1-4.39.74,32.13,32.13,0,0,0-8.57-11.6,27.54,27.54,0,0,1,2.11-4.07,10.27,10.27,0,0,1,3.18-2.94c1.2-.68,2.18.58,3.26.82.55.12,1.26-.65,1.16-1.81-.15-1.62-2-3.45-3.88-4.87h0l-.06,0-.06,0h0C70.89,9.12,68.59,8,67,8.32c-1.14.26-1.64,1.17-1.36,1.66.56.95,2.06,1.5,1.78,2.85a10.29,10.29,0,0,1-1.81,3.93,26.92,26.92,0,0,1-3.28,3.3,31.81,31.81,0,0,0-13.49-4.19,24.78,24.78,0,0,1-.79-4.81,10.48,10.48,0,0,1,.85-4.25C49.47,5.55,51,6,52,5.55c.51-.22.64-1.26-.12-2.14-1.07-1.23-3.62-1.64-6-1.66h-.14c-2.39,0-4.93.43-6,1.66-.77.88-.64,1.92-.13,2.14,1,.45,2.55,0,3.12,1.26a10.32,10.32,0,0,1,.85,4.25,23.18,23.18,0,0,1-.83,4.9,31.84,31.84,0,0,0-13,4.42s-.07-.08-.1-.09A22.5,22.5,0,0,1,26,16.76a10.29,10.29,0,0,1-1.81-3.93c-.28-1.35,1.23-1.9,1.78-2.85.29-.49-.22-1.4-1.35-1.66-1.59-.37-3.9.8-5.83,2.19h0a.1.1,0,0,0,0,0l-.06,0h0C16.78,12,15,13.84,14.81,15.46c-.1,1.16.62,1.93,1.17,1.81,1.08-.24,2.06-1.5,3.25-.82a10.41,10.41,0,0,1,3.19,2.94,22.47,22.47,0,0,1,2.23,4.52.58.58,0,0,0,.1.19,32.11,32.11,0,0,0-7.87,11,1,1,0,0,0-.32-.07,22.45,22.45,0,0,1-5-.73A10.24,10.24,0,0,1,7.79,32.2c-1-.92-.12-2.25-.23-3.35-.06-.56-1-1-2.08-.54C4,28.94,2.8,31.24,2.05,33.5h0l0,.07a.19.19,0,0,0,0,.07H2c-.73,2.28-1.12,4.82-.28,6.22.6,1,1.62,1.2,2,.78.73-.82.79-2.42,2.15-2.57a10.23,10.23,0,0,1,4.3.5,22,22,0,0,1,4.47,2.35,1,1,0,0,0,.33.13,32.44,32.44,0,0,0,0,13.5,1,1,0,0,0-.33.14A22.53,22.53,0,0,1,10.18,57a10.42,10.42,0,0,1-4.3.51C4.52,57.39,4.46,55.79,3.73,55c-.38-.42-1.4-.22-2,.78C.89,57.14,1.28,59.69,2,62H2A.19.19,0,0,0,2,62l0,.07h0C2.8,64.36,4,66.66,5.48,67.3c1.08.45,2,0,2.08-.55.11-1.1-.79-2.42.23-3.35a10.39,10.39,0,0,1,3.77-2.12,22.45,22.45,0,0,1,5-.73.8.8,0,0,0,.32-.07,32.11,32.11,0,0,0,7.87,11,.7.7,0,0,0-.1.19,22.8,22.8,0,0,1-2.23,4.53,10.49,10.49,0,0,1-3.19,2.93c-1.19.68-2.17-.58-3.25-.81-.55-.12-1.27.64-1.17,1.8.15,1.62,2,3.45,3.89,4.87h0l.06,0,0,0h0c1.93,1.39,4.24,2.55,5.83,2.18,1.13-.26,1.64-1.17,1.35-1.66-.55-1-2.06-1.5-1.78-2.84A10.33,10.33,0,0,1,26,78.84a22.41,22.41,0,0,1,3.61-3.52l.1-.09a32,32,0,0,0,13,4.41,23.16,23.16,0,0,1,.83,4.91,10.31,10.31,0,0,1-.85,4.24c-.57,1.26-2.1.81-3.12,1.26-.51.22-.64,1.26.13,2.14,1.07,1.23,3.61,1.64,6,1.66h.14c2.39,0,4.94-.43,6-1.66.76-.88.63-1.92.12-2.14-1-.45-2.55,0-3.12-1.26a10.47,10.47,0,0,1-.85-4.24,24.76,24.76,0,0,1,.79-4.82,31.81,31.81,0,0,0,13.49-4.19,26.92,26.92,0,0,1,3.28,3.3,10.33,10.33,0,0,1,1.81,3.94c.28,1.34-1.22,1.89-1.78,2.84-.28.49.22,1.4,1.36,1.66,1.59.37,3.89-.79,5.83-2.18h0l.06,0L73,85h0c1.92-1.42,3.73-3.25,3.88-4.87.1-1.16-.61-1.92-1.16-1.8-1.08.23-2.06,1.49-3.26.81a10.35,10.35,0,0,1-3.18-2.93,27.65,27.65,0,0,1-2.11-4.08,32.1,32.1,0,0,0,8.57-11.59,28.52,28.52,0,0,1,4.39.73,10.3,10.3,0,0,1,3.77,2.12c1,.93.12,2.25.23,3.35.06.56,1,1,2.08.55,1.5-.64,2.68-2.94,3.43-5.2h0l0-.07,0-.07h0c.72-2.27,1.11-4.82.28-6.22-.6-1-1.63-1.2-2-.78-.73.83-.78,2.43-2.15,2.58a10.44,10.44,0,0,1-4.3-.51,29.18,29.18,0,0,1-4-2,32.17,32.17,0,0,0,0-14.52,30.4,30.4,0,0,1,4-2,10.25,10.25,0,0,1,4.3-.5c1.37.15,1.42,1.75,2.15,2.57.38.42,1.41.22,2-.78.83-1.4.44-3.94-.28-6.22" transform="translate(0 -0.5)"/><path class="cls-4" d="M89.64,33.64h0l0-.07,0-.07h0c-.75-2.26-1.93-4.56-3.43-5.19-1.07-.46-2,0-2.08.54-.11,1.1.79,2.43-.23,3.35a10.16,10.16,0,0,1-3.77,2.12,29.79,29.79,0,0,1-4.39.74,32.13,32.13,0,0,0-8.57-11.6,27.54,27.54,0,0,1,2.11-4.07,10.27,10.27,0,0,1,3.18-2.94c1.2-.68,2.18.58,3.26.82.55.12,1.26-.65,1.16-1.81-.15-1.62-2-3.45-3.88-4.87h0l-.06,0-.06,0h0C70.89,9.12,68.59,8,67,8.32c-1.14.26-1.64,1.17-1.36,1.66.56.95,2.06,1.5,1.78,2.85a10.29,10.29,0,0,1-1.81,3.93,26.92,26.92,0,0,1-3.28,3.3,31.81,31.81,0,0,0-13.49-4.19,24.78,24.78,0,0,1-.79-4.81,10.48,10.48,0,0,1,.85-4.25C49.47,5.55,51,6,52,5.55c.51-.22.64-1.26-.12-2.14-1.07-1.23-3.62-1.64-6-1.66h-.14c-2.39,0-4.93.43-6,1.66-.77.88-.64,1.92-.13,2.14,1,.45,2.55,0,3.12,1.26a10.32,10.32,0,0,1,.85,4.25,23.18,23.18,0,0,1-.83,4.9,31.84,31.84,0,0,0-13,4.42s-.07-.08-.1-.09A22.5,22.5,0,0,1,26,16.76a10.29,10.29,0,0,1-1.81-3.93c-.28-1.35,1.23-1.9,1.78-2.85.29-.49-.22-1.4-1.35-1.66-1.59-.37-3.9.8-5.83,2.19h0a.1.1,0,0,0,0,0l-.06,0h0C16.78,12,15,13.84,14.81,15.46c-.1,1.16.62,1.93,1.17,1.81,1.08-.24,2.06-1.5,3.25-.82a10.41,10.41,0,0,1,3.19,2.94,22.47,22.47,0,0,1,2.23,4.52.58.58,0,0,0,.1.19,32.11,32.11,0,0,0-7.87,11,1,1,0,0,0-.32-.07,22.45,22.45,0,0,1-5-.73A10.24,10.24,0,0,1,7.79,32.2c-1-.92-.12-2.25-.23-3.35-.06-.56-1-1-2.08-.54C4,28.94,2.8,31.24,2.05,33.5h0l0,.07a.19.19,0,0,0,0,.07H2c-.73,2.28-1.12,4.82-.28,6.22.6,1,1.62,1.2,2,.78.73-.82.79-2.42,2.15-2.57a10.23,10.23,0,0,1,4.3.5,22,22,0,0,1,4.47,2.35,1,1,0,0,0,.33.13,32.44,32.44,0,0,0,0,13.5,1,1,0,0,0-.33.14A22.53,22.53,0,0,1,10.18,57a10.42,10.42,0,0,1-4.3.51C4.52,57.39,4.46,55.79,3.73,55c-.38-.42-1.4-.22-2,.78C.89,57.14,1.28,59.69,2,62H2A.19.19,0,0,0,2,62l0,.07h0C2.8,64.36,4,66.66,5.48,67.3c1.08.45,2,0,2.08-.55.11-1.1-.79-2.42.23-3.35a10.39,10.39,0,0,1,3.77-2.12,22.45,22.45,0,0,1,5-.73.8.8,0,0,0,.32-.07,32.11,32.11,0,0,0,7.87,11,.7.7,0,0,0-.1.19,22.8,22.8,0,0,1-2.23,4.53,10.49,10.49,0,0,1-3.19,2.93c-1.19.68-2.17-.58-3.25-.81-.55-.12-1.27.64-1.17,1.8.15,1.62,2,3.45,3.89,4.87h0l.06,0,0,0h0c1.93,1.39,4.24,2.55,5.83,2.18,1.13-.26,1.64-1.17,1.35-1.66-.55-1-2.06-1.5-1.78-2.84A10.33,10.33,0,0,1,26,78.84a22.41,22.41,0,0,1,3.61-3.52l.1-.09a32,32,0,0,0,13,4.41,23.16,23.16,0,0,1,.83,4.91,10.31,10.31,0,0,1-.85,4.24c-.57,1.26-2.1.81-3.12,1.26-.51.22-.64,1.26.13,2.14,1.07,1.23,3.61,1.64,6,1.66h.14c2.39,0,4.94-.43,6-1.66.76-.88.63-1.92.12-2.14-1-.45-2.55,0-3.12-1.26a10.47,10.47,0,0,1-.85-4.24,24.76,24.76,0,0,1,.79-4.82,31.81,31.81,0,0,0,13.49-4.19,26.92,26.92,0,0,1,3.28,3.3,10.33,10.33,0,0,1,1.81,3.94c.28,1.34-1.22,1.89-1.78,2.84-.28.49.22,1.4,1.36,1.66,1.59.37,3.89-.79,5.83-2.18h0l.06,0L73,85h0c1.92-1.42,3.73-3.25,3.88-4.87.1-1.16-.61-1.92-1.16-1.8-1.08.23-2.06,1.49-3.26.81a10.35,10.35,0,0,1-3.18-2.93,27.65,27.65,0,0,1-2.11-4.08,32.1,32.1,0,0,0,8.57-11.59,28.52,28.52,0,0,1,4.39.73,10.3,10.3,0,0,1,3.77,2.12c1,.93.12,2.25.23,3.35.06.56,1,1,2.08.55,1.5-.64,2.68-2.94,3.43-5.2h0l0-.07,0-.07h0c.72-2.27,1.11-4.82.28-6.22-.6-1-1.63-1.2-2-.78-.73.83-.78,2.43-2.15,2.58a10.44,10.44,0,0,1-4.3-.51,29.18,29.18,0,0,1-4-2,32.17,32.17,0,0,0,0-14.52,30.4,30.4,0,0,1,4-2,10.25,10.25,0,0,1,4.3-.5c1.37.15,1.42,1.75,2.15,2.57.38.42,1.41.22,2-.78C90.75,38.46,90.36,35.92,89.64,33.64Z" transform="translate(0 -0.5)"/><path class="cls-5" d="M95.36,79.88a27.06,27.06,0,1,1-27-27A27.06,27.06,0,0,1,95.36,79.88M92.79,55.4A34.52,34.52,0,0,0,38.72,97.46L16.83,119.34a8.5,8.5,0,0,0,12,12l21.88-21.88A34.52,34.52,0,0,0,92.79,55.4" transform="translate(0 -0.5)"/><path class="cls-6" d="M95.36,79.88a27.06,27.06,0,1,1-27-27A27.06,27.06,0,0,1,95.36,79.88ZM92.79,55.4A34.52,34.52,0,0,0,38.72,97.46L16.83,119.34a8.5,8.5,0,0,0,12,12l21.88-21.88A34.52,34.52,0,0,0,92.79,55.4Z" transform="translate(0 -0.5)"/></g></g></g></svg>